<svg id="Group_102" data-name="Group 102" xmlns="http://www.w3.org/2000/svg" xmlns:xlink="http://www.w3.org/1999/xlink" width="651.931" height="115.424" viewBox="0 0 651.931 115.424">
  <defs>
    <clipPath id="clip-path">
      <rect id="Rectangle_56" data-name="Rectangle 56" width="651.931" height="115.424" transform="translate(0 0)" fill="none"/>
    </clipPath>
    <clipPath id="clip-path-2">
      <path id="Path_34" data-name="Path 34" d="M42.67,17.335a41.578,41.578,0,1,0,17.468-3.867A41.608,41.608,0,0,0,42.67,17.335" fill="none"/>
    </clipPath>
    <linearGradient id="linear-gradient" x1="-0.134" y1="1.145" x2="-0.124" y2="1.145" gradientUnits="objectBoundingBox">
      <stop offset="0" stop-color="#0982fe"/>
      <stop offset="1" stop-color="#21d2fd"/>
    </linearGradient>
  </defs>
  <g id="Group_97" data-name="Group 97">
    <g id="Group_96" data-name="Group 96" clip-path="url(#clip-path)">
      <path id="Path_32" data-name="Path 32" d="M150.993,35.457H127.772v-10.9h59.9v10.9H164.515V88.812H150.993Zm60.349-10.9V49.3h32.505V24.559h13.5V88.812h-13.5V60.2H211.342V88.812H197.848V24.559Zm76.964,0V88.812H274.812V24.559Zm30.868,38.55v25.7H305.807V24.559h33.6c14.285,0,22.872,6.9,22.872,18.059,0,8.125-4.514,13.209-11.361,15.238,3.145,1.082,9.7,3.828,9.7,15.273v3.084c0,4.575-.064,9.669.791,12.6H347.57c-1.037-2.82-1.083-6.967-1.083-13.328v-2.12c0-7.454-2.8-10.255-12.776-10.255Zm0-10.324h17.132c8.365,0,12.174-2.983,12.174-9.119,0-5.7-3.873-8.783-11.974-8.783H319.174Zm57.073-28.226h28.2c21.362,0,33.288,13.883,33.288,31.03,0,20.577-14.921,33.223-33.57,33.223H376.247ZM402.178,78.2c14,0,21.249-8.235,21.249-22.234,0-12.849-7.307-20.724-20.886-20.851h-12.8V78.2Z" fill="#0c0d0d"/>
      <path id="Path_33" data-name="Path 33" d="M515.422,57.847H475.8v24.6h43.625l-1.07,6.361H468.5V24.018h48.982v6.36H475.8V51.486h39.622Zm37.9,30.965V63.73a2.233,2.233,0,0,0-.589-1.5L525.507,24.018h8.724c7.914,11.352,20.066,27.933,23.006,33.126,3.2-5.255,14.783-21.774,22.774-33.126h8.217L561.071,62.351a2.353,2.353,0,0,0-.44,1.5V88.812Zm91.1-30.965H604.8v24.6h43.625l-1.07,6.361H597.505V24.018h48.982v6.36H604.8V51.486h39.622Z" fill="#0c0d0d"/>
    </g>
  </g>
  <g id="Group_99" data-name="Group 99">
    <g id="Group_98" data-name="Group 98" clip-path="url(#clip-path-2)">
      <rect id="Rectangle_57" data-name="Rectangle 57" width="94.831" height="89.036" transform="translate(12.749 13.468)" fill="url(#linear-gradient)"/>
    </g>
  </g>
  <g id="Group_101" data-name="Group 101">
    <g id="Group_100" data-name="Group 100" clip-path="url(#clip-path)">
      <path id="Path_35" data-name="Path 35" d="M44.588,62.306a17.168,17.168,0,1,0,8.358-22.795,17.167,17.167,0,0,0-8.358,22.795" fill="#131314"/>
      <path id="Path_36" data-name="Path 36" d="M58.8,41.768a8.875,8.875,0,1,0,4.321-11.784A8.875,8.875,0,0,0,58.8,41.768" fill="#fff"/>
      <path id="Path_37" data-name="Path 37" d="M87.313,106.358a54.6,54.6,0,0,1-28.2,9.031,57.09,57.09,0,0,1-15.11-1.5,56.391,56.391,0,0,1-14.241-5.566c-1.141-.585-2.181-1.342-3.277-2.008l-1.625-1.035-.812-.52-.758-.595a53.03,53.03,0,0,1-5.844-5.035A57.6,57.6,0,0,1,7.914,86.984l-1.852-3.41a13.806,13.806,0,0,1-.818-1.757L4.5,80.027a60.354,60.354,0,0,1-2.523-7.336c-.36-1.243-.555-2.527-.838-3.79A28.377,28.377,0,0,1,.5,65.072L.079,61.208C.016,59.915.031,58.617.006,57.321L0,55.377c.037-.647.113-1.292.168-1.937l.368-3.871.737-3.818.375-1.907L2.2,41.982l1.119-3.721L4.8,34.669l.744-1.793c.282-.581.6-1.143.9-1.716L8.3,27.754a60.092,60.092,0,0,1,9.708-12,56,56,0,0,1,5.9-4.975c1.014-.79,2.157-1.4,3.228-2.107a29.715,29.715,0,0,1,3.325-1.932L33.9,5.02c1.159-.541,2.379-.945,3.564-1.421l1.789-.686c.6-.229,1.225-.36,1.835-.545l3.691-1c1.25-.246,2.511-.436,3.762-.653L50.415.4l1.9-.14L56.107,0l3.8.1c.631.032,1.262.022,1.89.088L63.67.433c1.248.177,2.5.3,3.736.524l3.67.855c.605.159,1.227.248,1.817.465l1.774.621A55.014,55.014,0,0,1,87.974,9.484L84.61,7.957,82.938,7.2c-.564-.236-1.158-.4-1.734-.607l-3.454-1.2c-1.167-.344-2.366-.583-3.54-.878L72.444,4.09c-.587-.146-1.2-.19-1.792-.29L67.07,3.278c-1.2-.114-2.409-.126-3.607-.2L61.666,3c-.6-.012-1.2.051-1.8.072l-3.586.154-3.552.485-1.769.246-1.739.416c-1.157.283-2.319.535-3.465.839L42.384,6.354c-.558.2-1.134.342-1.676.583l-1.624.718c-1.075.495-2.182.915-3.226,1.466l-3.086,1.733a26.2,26.2,0,0,0-2.962,1.92c-.949.7-1.968,1.293-2.857,2.063a53.763,53.763,0,0,0-5.231,4.7,54.592,54.592,0,0,0-8.485,11.129L11.63,33.778c-.266.518-.554,1.027-.8,1.554l-.65,1.624L8.871,40.2,7.9,43.56l-.489,1.677L7.1,46.956,6.465,50.39l-.291,3.481c-.045.58-.111,1.159-.14,1.74l.021,1.746c.014,1.163-.016,2.329.027,3.491l.346,3.477a24.1,24.1,0,0,0,.543,3.449c.246,1.138.4,2.3.717,3.421A54.786,54.786,0,0,0,9.9,77.825l.657,1.622a11.52,11.52,0,0,0,.722,1.592l1.6,3.115A52.037,52.037,0,0,0,21.2,95.4a28.436,28.436,0,0,0,2.5,2.468l2.676,2.29.666.58.72.508,1.443,1.016c.976.656,1.9,1.408,2.921,1.993a55.3,55.3,0,0,0,26.985,8.182,58.5,58.5,0,0,0,28.2-6.075"/>
    </g>
  </g>
</svg>
