<svg id="logo" xmlns="http://www.w3.org/2000/svg" xmlns:xlink="http://www.w3.org/1999/xlink" width="204.069" height="36.13" viewBox="0 0 204.069 36.13">
  <defs>
    <clipPath id="clip-path">
      <rect id="Rectangle_56" data-name="Rectangle 56" width="204.069" height="36.13" fill="none"/>
    </clipPath>
    <clipPath id="clip-path-2">
      <path id="Path_34" data-name="Path 34" d="M26.1,14.678a13.015,13.015,0,1,0,5.468-1.21,13.024,13.024,0,0,0-5.468,1.21" transform="translate(-18.545 -13.468)" fill="none"/>
    </clipPath>
    <linearGradient id="linear-gradient" x1="-0.134" y1="1.145" x2="-0.124" y2="1.145" gradientUnits="objectBoundingBox">
      <stop offset="0" stop-color="#0982fe"/>
      <stop offset="1" stop-color="#21d2fd"/>
    </linearGradient>
  </defs>
  <g id="Group_97" data-name="Group 97" transform="translate(0 0)">
    <g id="Group_96" data-name="Group 96" transform="translate(0 0)" clip-path="url(#clip-path)">
      <path id="Path_32" data-name="Path 32" d="M135.041,27.97h-7.269V24.559h18.75V27.97h-7.249v16.7h-4.233Zm18.891-3.411V32.3h10.175V24.559h4.224V44.672h-4.224V35.715H153.931v8.957h-4.224V24.559Zm24.091,0V44.672H173.8V24.559Zm9.662,12.067v8.046H183.5V24.559H194.02c4.472,0,7.159,2.159,7.159,5.653a4.66,4.66,0,0,1-3.556,4.77c.984.339,3.035,1.2,3.035,4.781v.965a17.286,17.286,0,0,0,.248,3.944h-4.332a13.686,13.686,0,0,1-.339-4.172v-.664c0-2.333-.876-3.21-4-3.21Zm0-3.232h5.363c2.618,0,3.811-.934,3.811-2.854,0-1.785-1.212-2.749-3.748-2.749h-5.425Zm17.865-8.835h8.826c6.687,0,10.42,4.346,10.42,9.713,0,6.441-4.671,10.4-10.508,10.4H205.55Zm8.117,16.79c4.383,0,6.651-2.578,6.651-6.96,0-4.022-2.287-6.487-6.538-6.527h-4.007V41.349Z" transform="translate(-87.777 -16.871)" fill="#0c0d0d"/>
      <path id="Path_33" data-name="Path 33" d="M483.19,34.607h-12.4v7.7h13.656l-.335,1.991H468.5V24.018h15.333v1.991H470.788v6.607h12.4ZM495.053,44.3V36.449a.7.7,0,0,0-.184-.468l-8.521-11.962h2.731c2.477,3.553,6.281,8.744,7.2,10.369,1-1.645,4.627-6.816,7.129-10.369h2.572l-8.5,12a.737.737,0,0,0-.138.469V44.3Zm28.518-9.693h-12.4v7.7h13.656l-.335,1.991h-15.6V24.018h15.333v1.991H511.168v6.607h12.4Z" transform="translate(-321.852 -16.5)" fill="#0c0d0d"/>
    </g>
  </g>
  <g id="Group_99" data-name="Group 99" transform="translate(5.805 4.216)">
    <g id="Group_98" data-name="Group 98" clip-path="url(#clip-path-2)">
      <rect id="Rectangle_57" data-name="Rectangle 57" width="29.684" height="27.87" transform="translate(-1.814 0)" fill="url(#linear-gradient)"/>
    </g>
  </g>
  <g id="Group_101" data-name="Group 101" transform="translate(0 0)">
    <g id="Group_100" data-name="Group 100" transform="translate(0 0)" clip-path="url(#clip-path)">
      <path id="Path_35" data-name="Path 35" d="M43.492,45.551a5.374,5.374,0,1,0,2.616-7.135,5.374,5.374,0,0,0-2.616,7.135" transform="translate(-29.535 -26.047)" fill="#131314"/>
      <path id="Path_36" data-name="Path 36" d="M58.236,33.106a2.778,2.778,0,1,0,1.353-3.689,2.778,2.778,0,0,0-1.353,3.689" transform="translate(-39.83 -20.032)" fill="#fff"/>
      <path id="Path_37" data-name="Path 37" d="M27.331,33.292A17.09,17.09,0,0,1,18.5,36.119a17.87,17.87,0,0,1-4.73-.471,17.652,17.652,0,0,1-4.458-1.742c-.357-.183-.683-.42-1.026-.629l-.509-.324-.254-.163L7.291,32.6a16.6,16.6,0,0,1-1.829-1.576,18.028,18.028,0,0,1-2.984-3.8L1.9,26.16a4.322,4.322,0,0,1-.256-.55l-.234-.56a18.892,18.892,0,0,1-.79-2.3C.5,22.365.444,21.963.355,21.568a8.883,8.883,0,0,1-.2-1.2l-.131-1.21c-.02-.4-.015-.811-.023-1.217l0-.609c.012-.2.035-.4.053-.606l.115-1.212.231-1.2.117-.6.174-.583.35-1.165L1.5,10.852l.233-.561c.088-.182.188-.358.283-.537L2.6,8.688A18.81,18.81,0,0,1,5.637,4.93,17.53,17.53,0,0,1,7.483,3.373c.317-.247.675-.439,1.01-.66a9.3,9.3,0,0,1,1.041-.6l1.076-.537c.363-.169.745-.3,1.116-.445l.56-.215c.186-.072.383-.113.574-.171L14.016.428c.391-.077.786-.136,1.178-.2l.588-.1.6-.044L17.563,0l1.188.031c.2.01.4.007.592.028l.588.077c.391.055.783.094,1.169.164l1.149.268c.189.05.384.078.569.146l.555.194a17.221,17.221,0,0,1,4.165,2.062l-1.053-.478-.523-.237c-.177-.074-.362-.126-.543-.19l-1.081-.376c-.365-.108-.741-.182-1.108-.275l-.553-.132c-.184-.046-.374-.059-.561-.091l-1.121-.163C20.619.99,20.24.987,19.865.965L19.3.939c-.187,0-.376.016-.563.023l-1.122.048-1.112.152-.554.077-.544.13c-.362.089-.726.167-1.085.263l-1.056.358c-.175.062-.355.107-.525.182l-.508.225c-.336.155-.683.286-1.01.459l-.966.542a8.2,8.2,0,0,0-.927.6c-.3.218-.616.4-.894.646A16.829,16.829,0,0,0,6.8,6.115,17.088,17.088,0,0,0,4.143,9.6l-.5.975c-.083.162-.173.321-.252.486l-.2.508-.408,1.016-.3,1.051-.153.525-.1.538-.2,1.075-.091,1.09c-.014.182-.035.363-.044.545l.007.547c0,.364-.005.729.008,1.093l.108,1.088a7.543,7.543,0,0,0,.17,1.08c.077.356.126.72.224,1.071A17.149,17.149,0,0,0,3.1,24.361l.206.508a3.606,3.606,0,0,0,.226.5l.5.975a16.289,16.289,0,0,0,2.6,3.519,8.9,8.9,0,0,0,.783.773l.838.717.208.182.225.159.452.318c.306.205.594.441.914.624A17.31,17.31,0,0,0,18.5,35.194a18.312,18.312,0,0,0,8.827-1.9" transform="translate(0 0)"/>
    </g>
  </g>
</svg>
