<svg id="Group_102" data-name="Group 102" xmlns="http://www.w3.org/2000/svg" xmlns:xlink="http://www.w3.org/1999/xlink" width="110.022" height="19.479" viewBox="0 0 110.022 19.479">
  <defs>
    <clipPath id="clip-path">
      <rect id="Rectangle_56" data-name="Rectangle 56" width="110.022" height="19.479" fill="none"/>
    </clipPath>
    <clipPath id="clip-path-2">
      <path id="Path_34" data-name="Path 34" d="M22.616,14.121a7.017,7.017,0,1,0,2.948-.653,7.022,7.022,0,0,0-2.948.653" transform="translate(-18.545 -13.468)" fill="none"/>
    </clipPath>
    <linearGradient id="linear-gradient" x1="-0.134" y1="1.145" x2="-0.124" y2="1.145" gradientUnits="objectBoundingBox">
      <stop offset="0" stop-color="#0982fe"/>
      <stop offset="1" stop-color="#21d2fd"/>
    </linearGradient>
  </defs>
  <g id="Group_97" data-name="Group 97" transform="translate(0 0)">
    <g id="Group_96" data-name="Group 96" transform="translate(0 0)" clip-path="url(#clip-path)">
      <path id="Path_32" data-name="Path 32" d="M131.691,26.4h-3.919V24.559h10.109V26.4h-3.908v9h-2.282Zm10.185-1.839v4.175h5.486V24.559h2.277V35.4h-2.277V30.574h-5.486V35.4H139.6V24.559Zm12.989,0V35.4h-2.277V24.559Zm5.209,6.506V35.4h-2.256V24.559h5.671c2.411,0,3.86,1.164,3.86,3.048a2.513,2.513,0,0,1-1.917,2.572,2.353,2.353,0,0,1,1.637,2.578v.52A9.321,9.321,0,0,0,167.2,35.4h-2.336a7.379,7.379,0,0,1-.183-2.249V32.8c0-1.258-.473-1.731-2.156-1.731Zm0-1.742h2.891c1.412,0,2.055-.5,2.055-1.539,0-.962-.654-1.482-2.021-1.482h-2.925Zm9.632-4.764h4.759c3.605,0,5.618,2.343,5.618,5.237a5.4,5.4,0,0,1-5.665,5.607h-4.711Zm4.376,9.052c2.363,0,3.586-1.39,3.586-3.752a3.223,3.223,0,0,0-3.525-3.519h-2.16v7.271Z" transform="translate(-106.209 -20.414)" fill="#0c0d0d"/>
      <path id="Path_33" data-name="Path 33" d="M476.422,29.727h-6.687v4.152H477.1l-.181,1.074H468.5V24.018h8.266v1.073h-7.035v3.562h6.687Zm6.4,5.226V30.72a.377.377,0,0,0-.1-.252l-4.594-6.449H479.6c1.336,1.916,3.386,4.714,3.883,5.59.54-.887,2.495-3.675,3.843-5.59h1.387l-4.583,6.469a.4.4,0,0,0-.074.253v4.213Zm15.375-5.226h-6.687v4.152h7.362l-.181,1.074h-8.413V24.018h8.266v1.073h-7.035v3.562h6.687Z" transform="translate(-389.438 -19.965)" fill="#0c0d0d"/>
    </g>
  </g>
  <g id="Group_99" data-name="Group 99" transform="translate(3.13 2.273)">
    <g id="Group_98" data-name="Group 98" clip-path="url(#clip-path-2)">
      <rect id="Rectangle_57" data-name="Rectangle 57" width="16.004" height="15.026" transform="translate(-0.978 0)" fill="url(#linear-gradient)"/>
    </g>
  </g>
  <g id="Group_101" data-name="Group 101" transform="translate(0 0)">
    <g id="Group_100" data-name="Group 100" transform="translate(0 0)" clip-path="url(#clip-path)">
      <path id="Path_35" data-name="Path 35" d="M43.262,42.032a2.9,2.9,0,1,0,1.411-3.847,2.9,2.9,0,0,0-1.411,3.847" transform="translate(-35.737 -31.517)" fill="#131314"/>
      <path id="Path_36" data-name="Path 36" d="M58.117,31.288a1.5,1.5,0,1,0,.729-1.989,1.5,1.5,0,0,0-.729,1.989" transform="translate(-48.194 -24.239)" fill="#fff"/>
      <path id="Path_37" data-name="Path 37" d="M14.735,17.949a9.214,9.214,0,0,1-4.759,1.524,9.635,9.635,0,0,1-2.55-.254,9.517,9.517,0,0,1-2.4-.939c-.193-.1-.368-.226-.553-.339L4.2,17.767l-.137-.088-.128-.1a8.949,8.949,0,0,1-.986-.85A9.72,9.72,0,0,1,1.336,14.68L1.023,14.1a2.33,2.33,0,0,1-.138-.3l-.126-.3a10.185,10.185,0,0,1-.426-1.238c-.061-.21-.094-.426-.141-.64a4.789,4.789,0,0,1-.108-.646l-.07-.652C0,10.111.005,9.892,0,9.674V9.346c.006-.109.019-.218.028-.327L.09,8.365l.124-.644L.278,7.4l.094-.314.189-.628L.81,5.851l.126-.3c.048-.1.1-.193.152-.29L1.4,4.684A10.141,10.141,0,0,1,3.039,2.658a9.451,9.451,0,0,1,1-.84c.171-.133.364-.236.545-.356a5.015,5.015,0,0,1,.561-.326l.58-.29c.2-.091.4-.159.6-.24l.3-.116c.1-.039.207-.061.31-.092L7.556.231c.211-.042.424-.074.635-.11L8.508.067,8.829.044,9.469,0l.64.017c.106.005.213,0,.319.015l.317.042c.211.03.422.05.63.088l.619.144c.1.027.207.042.307.078l.3.1A9.284,9.284,0,0,1,14.847,1.6l-.568-.258L14,1.215c-.1-.04-.2-.068-.293-.1l-.583-.2c-.2-.058-.4-.1-.6-.148l-.3-.071c-.1-.025-.2-.032-.3-.049l-.6-.088c-.2-.019-.407-.021-.609-.033l-.3-.014c-.1,0-.2.009-.3.012L9.5.544,8.9.626,8.6.668l-.293.07c-.2.048-.391.09-.585.142l-.569.193c-.094.033-.191.058-.283.1L6.6,1.292c-.181.084-.368.154-.544.247l-.521.292a4.422,4.422,0,0,0-.5.324c-.16.117-.332.218-.482.348a9.073,9.073,0,0,0-.883.793A9.213,9.213,0,0,0,2.234,5.175L1.963,5.7c-.045.087-.093.173-.136.262l-.11.274-.22.548-.163.567-.083.283-.053.29-.107.58-.049.587c-.008.1-.019.2-.024.294l0,.295c0,.2,0,.393,0,.589l.058.587a4.067,4.067,0,0,0,.092.582c.042.192.068.388.121.577a9.246,9.246,0,0,0,.374,1.119l.111.274a1.944,1.944,0,0,0,.122.269l.27.526a8.782,8.782,0,0,0,1.4,1.9A4.8,4.8,0,0,0,4,16.516l.452.386.112.1.122.086.244.171c.165.111.32.238.493.336a9.333,9.333,0,0,0,4.554,1.381,9.873,9.873,0,0,0,4.759-1.025" transform="translate(0 0)"/>
    </g>
  </g>
</svg>
