<svg id="Group_102" data-name="Group 102" xmlns="http://www.w3.org/2000/svg" xmlns:xlink="http://www.w3.org/1999/xlink" width="120.661" height="21.363" viewBox="0 0 120.661 21.363">
  <defs>
    <clipPath id="clip-path">
      <rect id="Rectangle_56" data-name="Rectangle 56" width="120.661" height="21.363" fill="none"/>
    </clipPath>
    <clipPath id="clip-path-2">
      <path id="Path_34" data-name="Path 34" d="M23.01,14.184a7.7,7.7,0,1,0,3.233-.716,7.7,7.7,0,0,0-3.233.716" transform="translate(-18.545 -13.468)" fill="none"/>
    </clipPath>
    <linearGradient id="linear-gradient" x1="-0.134" y1="1.145" x2="-0.124" y2="1.145" gradientUnits="objectBoundingBox">
      <stop offset="0" stop-color="#0982fe"/>
      <stop offset="1" stop-color="#21d2fd"/>
    </linearGradient>
  </defs>
  <g id="Group_97" data-name="Group 97" transform="translate(0 0)">
    <g id="Group_96" data-name="Group 96" transform="translate(0 0)" clip-path="url(#clip-path)">
      <path id="Path_32" data-name="Path 32" d="M132.07,26.576h-4.3V24.559h11.087v2.017h-4.286v9.875h-2.5Zm11.17-2.017v4.579h6.016V24.559h2.5V36.451h-2.5v-5.3h-6.016v5.3h-2.5V24.559Zm14.245,0V36.451h-2.5V24.559Zm5.713,7.135v4.757h-2.474V24.559h6.219c2.644,0,4.233,1.277,4.233,3.342a2.755,2.755,0,0,1-2.1,2.82,2.581,2.581,0,0,1,1.795,2.827v.571a10.222,10.222,0,0,0,.146,2.332h-2.562a8.092,8.092,0,0,1-.2-2.467v-.392c0-1.38-.518-1.9-2.365-1.9Zm0-1.911h3.171c1.548,0,2.253-.552,2.253-1.688,0-1.055-.717-1.626-2.216-1.626H163.2Zm10.563-5.224h5.219c3.954,0,6.161,2.569,6.161,5.743a5.922,5.922,0,0,1-6.213,6.149H173.76Zm4.8,9.927c2.592,0,3.933-1.524,3.933-4.115a3.534,3.534,0,0,0-3.866-3.859h-2.369v7.974Z" transform="translate(-104.124 -20.014)" fill="#0c0d0d"/>
      <path id="Path_33" data-name="Path 33" d="M477.188,30.279h-7.333v4.554h8.074l-.2,1.177H468.5V24.018h9.066V25.2h-7.715V29.1h7.333ZM484.2,36.01V31.368a.413.413,0,0,0-.109-.277l-5.038-7.073h1.615c1.465,2.1,3.714,5.17,4.258,6.131.592-.973,2.736-4.03,4.215-6.131h1.521l-5.026,7.095a.436.436,0,0,0-.081.277v4.62Zm16.862-5.731H493.73v4.554H501.8l-.2,1.177H492.38V24.018h9.066V25.2H493.73V29.1h7.333Z" transform="translate(-381.792 -19.573)" fill="#0c0d0d"/>
    </g>
  </g>
  <g id="Group_99" data-name="Group 99" transform="translate(3.432 2.493)">
    <g id="Group_98" data-name="Group 98" clip-path="url(#clip-path-2)">
      <rect id="Rectangle_57" data-name="Rectangle 57" width="17.552" height="16.479" transform="translate(-1.073 0)" fill="url(#linear-gradient)"/>
    </g>
  </g>
  <g id="Group_101" data-name="Group 101" transform="translate(0 0)">
    <g id="Group_100" data-name="Group 100" transform="translate(0 0)" clip-path="url(#clip-path)">
      <path id="Path_35" data-name="Path 35" d="M43.288,42.43a3.177,3.177,0,1,0,1.547-4.219,3.177,3.177,0,0,0-1.547,4.219" transform="translate(-35.036 -30.898)" fill="#131314"/>
      <path id="Path_36" data-name="Path 36" d="M58.131,31.493a1.643,1.643,0,1,0,.8-2.181,1.643,1.643,0,0,0-.8,2.181" transform="translate(-47.248 -23.763)" fill="#fff"/>
      <path id="Path_37" data-name="Path 37" d="M16.16,19.685a10.1,10.1,0,0,1-5.219,1.671,10.566,10.566,0,0,1-2.8-.279,10.437,10.437,0,0,1-2.636-1.03c-.211-.108-.4-.248-.607-.372l-.3-.192-.15-.1-.14-.11a9.815,9.815,0,0,1-1.082-.932A10.66,10.66,0,0,1,1.465,16.1l-.343-.631a2.555,2.555,0,0,1-.151-.325l-.138-.331a11.17,11.17,0,0,1-.467-1.358c-.067-.23-.1-.468-.155-.7a5.252,5.252,0,0,1-.118-.709l-.077-.715C0,11.089.006,10.849,0,10.609v-.36c.007-.12.021-.239.031-.359L.1,9.174l.136-.707.069-.353.1-.345.207-.689.273-.665.138-.332c.052-.108.111-.212.167-.318l.343-.63a11.122,11.122,0,0,1,1.8-2.222,10.365,10.365,0,0,1,1.092-.921c.188-.146.4-.259.6-.39a5.5,5.5,0,0,1,.615-.358L6.274.929c.215-.1.44-.175.66-.263L7.264.539c.11-.042.227-.067.34-.1L8.287.253c.231-.046.465-.081.7-.121L9.331.074,9.683.048l.7-.048.7.018c.117.006.234,0,.35.016l.348.046c.231.033.463.055.691.1l.679.158c.112.029.227.046.336.086l.328.115a10.182,10.182,0,0,1,2.463,1.219l-.623-.283-.309-.14c-.1-.044-.214-.075-.321-.112L14.39,1c-.216-.064-.438-.108-.655-.163L13.408.757C13.3.73,13.187.722,13.076.7l-.663-.1c-.222-.021-.446-.023-.668-.036L11.413.555c-.111,0-.222.009-.333.013L10.417.6l-.657.09L9.432.732,9.11.809c-.214.052-.429.1-.641.155l-.624.212c-.1.037-.21.063-.31.108l-.3.133c-.2.092-.4.169-.6.271l-.571.321a4.85,4.85,0,0,0-.548.355c-.176.129-.364.239-.529.382a9.951,9.951,0,0,0-.968.87,10.1,10.1,0,0,0-1.57,2.06l-.3.576c-.049.1-.1.19-.149.288l-.12.3-.242.6-.179.622-.091.31-.058.318L1.2,9.326l-.054.644c-.008.107-.021.215-.026.322l0,.323c0,.215,0,.431,0,.646l.064.644a4.46,4.46,0,0,0,.1.638c.046.211.074.426.133.633a10.14,10.14,0,0,0,.41,1.227l.122.3A2.132,2.132,0,0,0,2.088,15l.3.577a9.631,9.631,0,0,0,1.54,2.081,5.263,5.263,0,0,0,.463.457l.5.424.123.107.133.094.267.188c.181.121.351.261.541.369a10.235,10.235,0,0,0,4.994,1.514,10.827,10.827,0,0,0,5.219-1.124" transform="translate(0 0)"/>
    </g>
  </g>
</svg>
